<svg xmlns="http://www.w3.org/2000/svg" version="1.1" xmlns:xlink="http://www.w3.org/1999/xlink" xmlns:svgjs="http://svgjs.dev/svgjs" width="1000" height="1000" viewBox="0 0 1000 1000"><rect width="1000" height="1000" fill="#046380"></rect><g transform="matrix(0.7,0,0,0.7,150,281.25)"><svg viewBox="0 0 512 320" data-background-color="#046380" preserveAspectRatio="xMidYMid meet" height="625" width="1000" xmlns="http://www.w3.org/2000/svg" xmlns:xlink="http://www.w3.org/1999/xlink"><g id="tight-bounds" transform="matrix(1,0,0,1,0,0)"><svg viewBox="0 0 512 320" height="320" width="512"><g><svg></svg></g><g><svg viewBox="0 0 512 320" height="320" width="512"><g><path xmlns="http://www.w3.org/2000/svg" d="M96 320l0-320 320 0 0 320z" fill="#ffffff" fill-rule="nonzero" stroke="none" stroke-width="1" stroke-linecap="butt" stroke-linejoin="miter" stroke-miterlimit="10" stroke-dasharray="" stroke-dashoffset="0" font-family="none" font-weight="none" font-size="none" text-anchor="none" style="mix-blend-mode: normal" data-fill-palette-color="tertiary"></path></g><g transform="matrix(1,0,0,1,140.8,96.325)"><svg viewBox="0 0 230.4 127.35" height="127.35" width="230.4"><g><svg viewBox="0 0 230.4 127.35" height="127.35" width="230.4"><g><svg viewBox="0 0 230.4 127.35" height="127.35" width="230.4"><g id="textblocktransform"><svg viewBox="0 0 230.4 127.35" height="127.35" width="230.4" id="textblock"><g><svg viewBox="0 0 230.4 127.35" height="127.35" width="230.4"><g transform="matrix(1,0,0,1,0,0)"><svg width="230.4" viewBox="1.350000023841858 -36.5 76.80000305175781 42.45000076293945" height="127.35" data-palette-color="#046380"><path d="M19.45 5.95L3.65 5.95Q2.45 5.95 1.9 5.4 1.35 4.85 1.35 3.65L1.35 3.65 1.35-2.2Q1.35-2.85 1.53-3.3 1.7-3.75 2.05-4.05L2.05-4.05 7.05-8.25Q4.4-9.05 2.88-10.98 1.35-12.9 1.35-16.5L1.35-16.5 1.35-21.75Q1.35-24 2.1-25.75 2.85-27.5 4.25-28.7L4.25-28.7 10.75-34.15Q12.1-35.25 14.1-35.88 16.1-36.5 18.65-36.5L18.65-36.5 32.65-36.5Q33.85-36.5 34.4-35.95 34.95-35.4 34.95-34.2L34.95-34.2 34.95-28.25Q34.95-27.6 34.77-27.15 34.6-26.7 34.25-26.4L34.25-26.4 29.75-22.65Q32.9-21.95 34.83-20.03 36.75-18.1 36.75-14.05L36.75-14.05 36.75-8.8Q36.75-6.55 36-4.8 35.25-3.05 33.8-1.85L33.8-1.85 27.35 3.55Q25.95 4.7 23.95 5.33 21.95 5.95 19.45 5.95L19.45 5.95ZM10.1 0L25.9 0Q30.7 0 33.48-2.27 36.25-4.55 36.25-8.8L36.25-8.8 36.25-14.05Q36.25-18.25 34.1-20.05 31.95-21.85 28.45-22.35L28.45-22.35 21-23.35Q20.35-23.4 20-23.85 19.65-24.3 19.65-24.95L19.65-24.95Q19.65-25.6 20-26.03 20.35-26.45 21-26.45L21-26.45 32.65-26.45Q33.6-26.45 34.02-26.88 34.45-27.3 34.45-28.25L34.45-28.25 34.45-34.2Q34.45-35.15 34.02-35.58 33.6-36 32.65-36L32.65-36 18.65-36Q13.8-36 11.05-33.73 8.3-31.45 8.3-27.2L8.3-27.2 8.3-21.95Q8.3-17.75 10.43-15.95 12.55-14.15 16.05-13.65L16.05-13.65 23.55-12.6Q24.2-12.55 24.53-12.15 24.85-11.75 24.85-10.9L24.85-10.9Q24.85-10.3 24.53-9.88 24.2-9.45 23.55-9.45L23.55-9.45 10.1-9.45Q9.15-9.45 8.72-9.03 8.3-8.6 8.3-7.65L8.3-7.65 8.3-1.8Q8.3-0.85 8.72-0.43 9.15 0 10.1 0L10.1 0ZM18.85-31.5L29.95-31.5 29.95-31 18.85-31Q16.75-31 15.5-29.85 14.25-28.7 14.25-26.95L14.25-26.95 14.25-22.85Q14.25-21.1 14.95-20.4 15.65-19.7 16.8-19.5L16.8-19.5 27.35-17.35Q28.85-17.05 29.83-16.05 30.8-15.05 30.8-12.45L30.8-12.45 30.8-9.55Q30.8-7.35 29.3-5.93 27.8-4.5 25.25-4.5L25.25-4.5 12.8-4.5 12.8-5 25.25-5Q27.55-5 28.93-6.28 30.3-7.55 30.3-9.55L30.3-9.55 30.3-12.45Q30.3-14.8 29.48-15.68 28.65-16.55 27.25-16.85L27.25-16.85 16.7-19Q15.4-19.25 14.58-20.03 13.75-20.8 13.75-22.85L13.75-22.85 13.75-26.95Q13.75-28.95 15.15-30.23 16.55-31.5 18.85-31.5L18.85-31.5ZM75-2.1L68.5 3.3Q66.95 4.6 64.55 5.28 62.15 5.95 58.9 5.95L58.9 5.95 42.05 5.95Q40.85 5.95 40.3 5.4 39.75 4.85 39.75 3.65L39.75 3.65 39.75-28.75Q39.75-29.4 39.92-29.85 40.1-30.3 40.45-30.6L40.45-30.6 46.9-36.05Q47.15-36.25 47.57-36.38 48-36.5 48.5-36.5L48.5-36.5 65.35-36.5Q71.9-36.5 75.02-33.85 78.15-31.2 78.15-25.8L78.15-25.8 78.15-10.2Q78.15-7.5 77.35-5.48 76.55-3.45 75-2.1L75-2.1ZM48.5 0L65.35 0Q71.6 0 74.62-2.5 77.65-5 77.65-10.2L77.65-10.2 77.65-25.8Q77.65-31 74.62-33.5 71.6-36 65.35-36L65.35-36 48.5-36Q47.55-36 47.12-35.58 46.7-35.15 46.7-34.2L46.7-34.2 46.7-1.8Q46.7-0.85 47.12-0.43 47.55 0 48.5 0L48.5 0ZM64.25-4.5L52.15-4.5 52.15-31.5 64.25-31.5Q66.8-31.5 68.37-30.95 69.95-30.4 70.8-29.48 71.65-28.55 71.95-27.28 72.25-26 72.25-24.55L72.25-24.55 72.25-11.3Q72.25-9.85 71.97-8.6 71.7-7.35 70.85-6.45 70-5.55 68.4-5.03 66.8-4.5 64.25-4.5L64.25-4.5ZM64.25-31L64.25-31 52.65-31 52.65-5 64.25-5Q66.65-5 68.12-5.48 69.6-5.95 70.4-6.78 71.2-7.6 71.47-8.78 71.75-9.95 71.75-11.3L71.75-11.3 71.75-24.55Q71.75-25.9 71.45-27.1 71.15-28.3 70.35-29.15 69.55-30 68.07-30.5 66.6-31 64.25-31ZM58.05-9.45L58.05-26.45 64-26.45Q65.2-26.45 65.77-25.88 66.35-25.3 66.35-24.05L66.35-24.05 66.35-11.9Q66.35-10.65 65.77-10.05 65.2-9.45 64-9.45L64-9.45 58.05-9.45ZM59.4-9.95L59.4-18.6Q59.4-19.25 59.2-19.7 59-20.15 58.55-20.35L58.55-20.35 58.55-9.95 59.4-9.95Z" opacity="1" transform="matrix(1,0,0,1,0,0)" fill="#046380" class="wordmark-text-0" data-fill-palette-color="quaternary" id="text-0"></path></svg></g></svg></g></svg></g></svg></g><g></g></svg></g></svg></g></svg></g><defs></defs></svg><rect width="512" height="320" fill="none" stroke="none" visibility="hidden"></rect></g></svg></g></svg>